<?xml version="1.0" encoding="utf-8"?>
<!-- Generator: Adobe Illustrator 25.4.1, SVG Export Plug-In . SVG Version: 6.00 Build 0)  -->
<svg version="1.1" xmlns="http://www.w3.org/2000/svg" xmlns:xlink="http://www.w3.org/1999/xlink" x="0px" y="0px"
	 viewBox="0 0 2560 1440" style="enable-background:new 0 0 2560 1440;" xml:space="preserve">
<style type="text/css">
	.st0{display:none;}
	.st1{display:inline;}
	.st2{fill:none;stroke:#00AEEF;stroke-miterlimit:10;}
	.st3{fill:#262262;}
	.st4{fill:#059DC0;}
	.st5{fill:#6AF2F0;}
	.st6{fill:#04D4F0;}
	.st7{fill:#00FFFF;}
	.st8{fill:#21409A;}
	.st9{fill:#020060;}
	.st10{fill:#45AEEF;}
	.st11{fill:#090177;}
	.st12{fill:#4D51FF;}
</style>
<g id="Isometric" class="st0">
	<g class="st1">
		<polygon class="st2" points="-1371.38,750.95 1288.23,-784.58 3956.44,765.86 1296.83,2301.39 		"/>
		<line class="st2" x1="1270.41" y1="2286.04" x2="3930.02" y2="750.51"/>
		<line class="st2" x1="1243.99" y1="2270.69" x2="3903.6" y2="735.16"/>
		<line class="st2" x1="1217.57" y1="2255.33" x2="3877.18" y2="719.81"/>
		<line class="st2" x1="1191.15" y1="2239.98" x2="3850.76" y2="704.46"/>
		<line class="st2" x1="1164.74" y1="2224.63" x2="3824.35" y2="689.11"/>
		<line class="st2" x1="1138.32" y1="2209.28" x2="3797.93" y2="673.75"/>
		<line class="st2" x1="1111.9" y1="2193.93" x2="3771.51" y2="658.4"/>
		<line class="st2" x1="1085.48" y1="2178.58" x2="3745.09" y2="643.05"/>
		<line class="st2" x1="1059.06" y1="2163.23" x2="3718.68" y2="627.7"/>
		<line class="st2" x1="1032.65" y1="2147.88" x2="3692.26" y2="612.35"/>
		<line class="st2" x1="1006.23" y1="2132.53" x2="3665.84" y2="597"/>
		<line class="st2" x1="979.81" y1="2117.18" x2="3639.42" y2="581.65"/>
		<line class="st2" x1="953.39" y1="2101.83" x2="3613" y2="566.3"/>
		<line class="st2" x1="926.97" y1="2086.47" x2="3586.59" y2="550.95"/>
		<line class="st2" x1="900.56" y1="2071.12" x2="3560.17" y2="535.6"/>
		<line class="st2" x1="874.14" y1="2055.77" x2="3533.75" y2="520.25"/>
		<line class="st2" x1="847.72" y1="2040.42" x2="3507.33" y2="504.89"/>
		<line class="st2" x1="821.3" y1="2025.07" x2="3480.91" y2="489.54"/>
		<line class="st2" x1="794.89" y1="2009.72" x2="3454.5" y2="474.19"/>
		<line class="st2" x1="768.47" y1="1994.37" x2="3428.08" y2="458.84"/>
		<line class="st2" x1="742.05" y1="1979.02" x2="3401.66" y2="443.49"/>
		<line class="st2" x1="715.63" y1="1963.67" x2="3375.24" y2="428.14"/>
		<line class="st2" x1="689.21" y1="1948.32" x2="3348.82" y2="412.79"/>
		<line class="st2" x1="662.8" y1="1932.97" x2="3322.41" y2="397.44"/>
		<line class="st2" x1="636.38" y1="1917.61" x2="3295.99" y2="382.09"/>
		<line class="st2" x1="609.96" y1="1902.26" x2="3269.57" y2="366.74"/>
		<line class="st2" x1="583.54" y1="1886.91" x2="3243.15" y2="351.39"/>
		<line class="st2" x1="557.12" y1="1871.56" x2="3216.73" y2="336.03"/>
		<line class="st2" x1="530.71" y1="1856.21" x2="3190.32" y2="320.68"/>
		<line class="st2" x1="504.29" y1="1840.86" x2="3163.9" y2="305.33"/>
		<line class="st2" x1="477.87" y1="1825.51" x2="3137.48" y2="289.98"/>
		<line class="st2" x1="451.45" y1="1810.16" x2="3111.06" y2="274.63"/>
		<line class="st2" x1="425.03" y1="1794.81" x2="3084.64" y2="259.28"/>
		<line class="st2" x1="398.62" y1="1779.46" x2="3058.23" y2="243.93"/>
		<line class="st2" x1="372.2" y1="1764.11" x2="3031.81" y2="228.58"/>
		<line class="st2" x1="345.78" y1="1748.75" x2="3005.39" y2="213.23"/>
		<line class="st2" x1="319.36" y1="1733.4" x2="2978.97" y2="197.88"/>
		<line class="st2" x1="292.94" y1="1718.05" x2="2952.56" y2="182.53"/>
		<line class="st2" x1="266.53" y1="1702.7" x2="2926.14" y2="167.18"/>
		<line class="st2" x1="240.11" y1="1687.35" x2="2899.72" y2="151.82"/>
		<line class="st2" x1="213.69" y1="1672" x2="2873.3" y2="136.47"/>
		<line class="st2" x1="187.27" y1="1656.65" x2="2846.88" y2="121.12"/>
		<line class="st2" x1="160.85" y1="1641.3" x2="2820.47" y2="105.77"/>
		<line class="st2" x1="134.44" y1="1625.95" x2="2794.05" y2="90.42"/>
		<line class="st2" x1="108.02" y1="1610.6" x2="2767.63" y2="75.07"/>
		<line class="st2" x1="81.6" y1="1595.25" x2="2741.21" y2="59.72"/>
		<line class="st2" x1="55.18" y1="1579.89" x2="2714.79" y2="44.37"/>
		<line class="st2" x1="28.77" y1="1564.54" x2="2688.38" y2="29.02"/>
		<line class="st2" x1="2.35" y1="1549.19" x2="2661.96" y2="13.67"/>
		<line class="st2" x1="-24.07" y1="1533.84" x2="2635.54" y2="-1.68"/>
		<line class="st2" x1="-50.49" y1="1518.49" x2="2609.12" y2="-17.04"/>
		<line class="st2" x1="-76.91" y1="1503.14" x2="2582.7" y2="-32.39"/>
		<line class="st2" x1="-103.32" y1="1487.79" x2="2556.29" y2="-47.74"/>
		<line class="st2" x1="-129.74" y1="1472.44" x2="2529.87" y2="-63.09"/>
		<line class="st2" x1="-156.16" y1="1457.09" x2="2503.45" y2="-78.44"/>
		<line class="st2" x1="-182.58" y1="1441.74" x2="2477.03" y2="-93.79"/>
		<line class="st2" x1="-209" y1="1426.39" x2="2450.61" y2="-109.14"/>
		<line class="st2" x1="-235.41" y1="1411.03" x2="2424.2" y2="-124.49"/>
		<line class="st2" x1="-261.83" y1="1395.68" x2="2397.78" y2="-139.84"/>
		<line class="st2" x1="-288.25" y1="1380.33" x2="2371.36" y2="-155.19"/>
		<line class="st2" x1="-314.67" y1="1364.98" x2="2344.94" y2="-170.54"/>
		<line class="st2" x1="-341.09" y1="1349.63" x2="2318.53" y2="-185.9"/>
		<line class="st2" x1="-367.5" y1="1334.28" x2="2292.11" y2="-201.25"/>
		<line class="st2" x1="-393.92" y1="1318.93" x2="2265.69" y2="-216.6"/>
		<line class="st2" x1="-420.34" y1="1303.58" x2="2239.27" y2="-231.95"/>
		<line class="st2" x1="-446.76" y1="1288.23" x2="2212.85" y2="-247.3"/>
		<line class="st2" x1="-473.18" y1="1272.88" x2="2186.44" y2="-262.65"/>
		<line class="st2" x1="-499.59" y1="1257.53" x2="2160.02" y2="-278"/>
		<line class="st2" x1="-526.01" y1="1242.17" x2="2133.6" y2="-293.35"/>
		<line class="st2" x1="-552.43" y1="1226.82" x2="2107.18" y2="-308.7"/>
		<line class="st2" x1="-578.85" y1="1211.47" x2="2080.76" y2="-324.05"/>
		<line class="st2" x1="-605.26" y1="1196.12" x2="2054.35" y2="-339.4"/>
		<line class="st2" x1="-631.68" y1="1180.77" x2="2027.93" y2="-354.76"/>
		<line class="st2" x1="-658.1" y1="1165.42" x2="2001.51" y2="-370.11"/>
		<line class="st2" x1="-684.52" y1="1150.07" x2="1975.09" y2="-385.46"/>
		<line class="st2" x1="-710.94" y1="1134.72" x2="1948.67" y2="-400.81"/>
		<line class="st2" x1="-737.35" y1="1119.37" x2="1922.26" y2="-416.16"/>
		<line class="st2" x1="-763.77" y1="1104.02" x2="1895.84" y2="-431.51"/>
		<line class="st2" x1="-790.19" y1="1088.67" x2="1869.42" y2="-446.86"/>
		<line class="st2" x1="-816.61" y1="1073.32" x2="1843" y2="-462.21"/>
		<line class="st2" x1="-843.03" y1="1057.96" x2="1816.58" y2="-477.56"/>
		<line class="st2" x1="-869.44" y1="1042.61" x2="1790.17" y2="-492.91"/>
		<line class="st2" x1="-895.86" y1="1027.26" x2="1763.75" y2="-508.26"/>
		<line class="st2" x1="-922.28" y1="1011.91" x2="1737.33" y2="-523.62"/>
		<line class="st2" x1="-948.7" y1="996.56" x2="1710.91" y2="-538.97"/>
		<line class="st2" x1="-975.12" y1="981.21" x2="1684.49" y2="-554.32"/>
		<line class="st2" x1="-1001.53" y1="965.86" x2="1658.08" y2="-569.67"/>
		<line class="st2" x1="-1027.95" y1="950.51" x2="1631.66" y2="-585.02"/>
		<line class="st2" x1="-1054.37" y1="935.16" x2="1605.24" y2="-600.37"/>
		<line class="st2" x1="-1080.79" y1="919.81" x2="1578.82" y2="-615.72"/>
		<line class="st2" x1="-1107.21" y1="904.46" x2="1552.41" y2="-631.07"/>
		<line class="st2" x1="-1133.62" y1="889.1" x2="1525.99" y2="-646.42"/>
		<line class="st2" x1="-1160.04" y1="873.75" x2="1499.57" y2="-661.77"/>
		<line class="st2" x1="-1186.46" y1="858.4" x2="1473.15" y2="-677.12"/>
		<line class="st2" x1="-1212.88" y1="843.05" x2="1446.73" y2="-692.48"/>
		<line class="st2" x1="-1239.29" y1="827.7" x2="1420.32" y2="-707.83"/>
		<line class="st2" x1="-1265.71" y1="812.35" x2="1393.9" y2="-723.18"/>
		<line class="st2" x1="-1292.13" y1="797" x2="1367.48" y2="-738.53"/>
		<line class="st2" x1="-1318.55" y1="781.65" x2="1341.06" y2="-753.88"/>
		<line class="st2" x1="-1344.97" y1="766.3" x2="1314.64" y2="-769.23"/>
		<line class="st2" x1="1261.89" y1="-769.38" x2="3930.1" y2="781.06"/>
		<line class="st2" x1="1235.56" y1="-754.17" x2="3903.77" y2="796.27"/>
		<line class="st2" x1="1209.23" y1="-738.97" x2="3877.44" y2="811.47"/>
		<line class="st2" x1="1182.9" y1="-723.77" x2="3851.11" y2="826.67"/>
		<line class="st2" x1="1156.56" y1="-708.56" x2="3824.77" y2="841.88"/>
		<line class="st2" x1="1130.23" y1="-693.36" x2="3798.44" y2="857.08"/>
		<line class="st2" x1="1103.9" y1="-678.16" x2="3772.11" y2="872.28"/>
		<line class="st2" x1="1077.56" y1="-662.95" x2="3745.77" y2="887.49"/>
		<line class="st2" x1="1051.23" y1="-647.75" x2="3719.44" y2="902.69"/>
		<line class="st2" x1="1024.9" y1="-632.55" x2="3693.11" y2="917.89"/>
		<line class="st2" x1="998.57" y1="-617.35" x2="3666.78" y2="933.1"/>
		<line class="st2" x1="972.23" y1="-602.14" x2="3640.44" y2="948.3"/>
		<line class="st2" x1="945.9" y1="-586.94" x2="3614.11" y2="963.5"/>
		<line class="st2" x1="919.57" y1="-571.74" x2="3587.78" y2="978.71"/>
		<line class="st2" x1="893.23" y1="-556.53" x2="3561.44" y2="993.91"/>
		<line class="st2" x1="866.9" y1="-541.33" x2="3535.11" y2="1009.11"/>
		<line class="st2" x1="840.57" y1="-526.13" x2="3508.78" y2="1024.32"/>
		<line class="st2" x1="814.24" y1="-510.92" x2="3482.45" y2="1039.52"/>
		<line class="st2" x1="787.9" y1="-495.72" x2="3456.11" y2="1054.72"/>
		<line class="st2" x1="761.57" y1="-480.52" x2="3429.78" y2="1069.92"/>
		<line class="st2" x1="735.24" y1="-465.31" x2="3403.45" y2="1085.13"/>
		<line class="st2" x1="708.9" y1="-450.11" x2="3377.12" y2="1100.33"/>
		<line class="st2" x1="682.57" y1="-434.91" x2="3350.78" y2="1115.53"/>
		<line class="st2" x1="656.24" y1="-419.7" x2="3324.45" y2="1130.74"/>
		<line class="st2" x1="629.91" y1="-404.5" x2="3298.12" y2="1145.94"/>
		<line class="st2" x1="603.57" y1="-389.3" x2="3271.78" y2="1161.14"/>
		<line class="st2" x1="577.24" y1="-374.09" x2="3245.45" y2="1176.35"/>
		<line class="st2" x1="550.91" y1="-358.89" x2="3219.12" y2="1191.55"/>
		<line class="st2" x1="524.58" y1="-343.69" x2="3192.79" y2="1206.75"/>
		<line class="st2" x1="498.24" y1="-328.48" x2="3166.45" y2="1221.96"/>
		<line class="st2" x1="471.91" y1="-313.28" x2="3140.12" y2="1237.16"/>
		<line class="st2" x1="445.58" y1="-298.08" x2="3113.79" y2="1252.36"/>
		<line class="st2" x1="419.24" y1="-282.87" x2="3087.45" y2="1267.57"/>
		<line class="st2" x1="392.91" y1="-267.67" x2="3061.12" y2="1282.77"/>
		<line class="st2" x1="366.58" y1="-252.47" x2="3034.79" y2="1297.97"/>
		<line class="st2" x1="340.25" y1="-237.26" x2="3008.46" y2="1313.18"/>
		<line class="st2" x1="313.91" y1="-222.06" x2="2982.12" y2="1328.38"/>
		<line class="st2" x1="287.58" y1="-206.86" x2="2955.79" y2="1343.58"/>
		<line class="st2" x1="261.25" y1="-191.65" x2="2929.46" y2="1358.79"/>
		<line class="st2" x1="234.91" y1="-176.45" x2="2903.12" y2="1373.99"/>
		<line class="st2" x1="208.58" y1="-161.25" x2="2876.79" y2="1389.19"/>
		<line class="st2" x1="182.25" y1="-146.04" x2="2850.46" y2="1404.4"/>
		<line class="st2" x1="155.92" y1="-130.84" x2="2824.13" y2="1419.6"/>
		<line class="st2" x1="129.58" y1="-115.64" x2="2797.79" y2="1434.8"/>
		<line class="st2" x1="103.25" y1="-100.44" x2="2771.46" y2="1450.01"/>
		<line class="st2" x1="76.92" y1="-85.23" x2="2745.13" y2="1465.21"/>
		<line class="st2" x1="50.59" y1="-70.03" x2="2718.8" y2="1480.41"/>
		<line class="st2" x1="24.25" y1="-54.83" x2="2692.46" y2="1495.62"/>
		<line class="st2" x1="-2.08" y1="-39.62" x2="2666.13" y2="1510.82"/>
		<line class="st2" x1="-28.41" y1="-24.42" x2="2639.8" y2="1526.02"/>
		<line class="st2" x1="-54.75" y1="-9.22" x2="2613.46" y2="1541.23"/>
		<line class="st2" x1="-81.08" y1="5.99" x2="2587.13" y2="1556.43"/>
		<line class="st2" x1="-107.41" y1="21.19" x2="2560.8" y2="1571.63"/>
		<line class="st2" x1="-133.74" y1="36.39" x2="2534.47" y2="1586.83"/>
		<line class="st2" x1="-160.08" y1="51.6" x2="2508.13" y2="1602.04"/>
		<line class="st2" x1="-186.41" y1="66.8" x2="2481.8" y2="1617.24"/>
		<line class="st2" x1="-212.74" y1="82" x2="2455.47" y2="1632.44"/>
		<line class="st2" x1="-239.08" y1="97.21" x2="2429.14" y2="1647.65"/>
		<line class="st2" x1="-265.41" y1="112.41" x2="2402.8" y2="1662.85"/>
		<line class="st2" x1="-291.74" y1="127.61" x2="2376.47" y2="1678.05"/>
		<line class="st2" x1="-318.07" y1="142.82" x2="2350.14" y2="1693.26"/>
		<line class="st2" x1="-344.41" y1="158.02" x2="2323.8" y2="1708.46"/>
		<line class="st2" x1="-370.74" y1="173.22" x2="2297.47" y2="1723.66"/>
		<line class="st2" x1="-397.07" y1="188.43" x2="2271.14" y2="1738.87"/>
		<line class="st2" x1="-423.4" y1="203.63" x2="2244.81" y2="1754.07"/>
		<line class="st2" x1="-449.74" y1="218.83" x2="2218.47" y2="1769.27"/>
		<line class="st2" x1="-476.07" y1="234.04" x2="2192.14" y2="1784.48"/>
		<line class="st2" x1="-502.4" y1="249.24" x2="2165.81" y2="1799.68"/>
		<line class="st2" x1="-528.74" y1="264.44" x2="2139.47" y2="1814.88"/>
		<line class="st2" x1="-555.07" y1="279.65" x2="2113.14" y2="1830.09"/>
		<line class="st2" x1="-581.4" y1="294.85" x2="2086.81" y2="1845.29"/>
		<line class="st2" x1="-607.73" y1="310.05" x2="2060.48" y2="1860.49"/>
		<line class="st2" x1="-634.07" y1="325.26" x2="2034.14" y2="1875.7"/>
		<line class="st2" x1="-660.4" y1="340.46" x2="2007.81" y2="1890.9"/>
		<line class="st2" x1="-686.73" y1="355.66" x2="1981.48" y2="1906.1"/>
		<line class="st2" x1="-713.07" y1="370.87" x2="1955.15" y2="1921.31"/>
		<line class="st2" x1="-739.4" y1="386.07" x2="1928.81" y2="1936.51"/>
		<line class="st2" x1="-765.73" y1="401.27" x2="1902.48" y2="1951.71"/>
		<line class="st2" x1="-792.06" y1="416.47" x2="1876.15" y2="1966.92"/>
		<line class="st2" x1="-818.4" y1="431.68" x2="1849.81" y2="1982.12"/>
		<line class="st2" x1="-844.73" y1="446.88" x2="1823.48" y2="1997.32"/>
		<line class="st2" x1="-871.06" y1="462.08" x2="1797.15" y2="2012.53"/>
		<line class="st2" x1="-897.39" y1="477.29" x2="1770.82" y2="2027.73"/>
		<line class="st2" x1="-923.73" y1="492.49" x2="1744.48" y2="2042.93"/>
		<line class="st2" x1="-950.06" y1="507.69" x2="1718.15" y2="2058.14"/>
		<line class="st2" x1="-976.39" y1="522.9" x2="1691.82" y2="2073.34"/>
		<line class="st2" x1="-1002.73" y1="538.1" x2="1665.48" y2="2088.54"/>
		<line class="st2" x1="-1029.06" y1="553.3" x2="1639.15" y2="2103.74"/>
		<line class="st2" x1="-1055.39" y1="568.51" x2="1612.82" y2="2118.95"/>
		<line class="st2" x1="-1081.72" y1="583.71" x2="1586.49" y2="2134.15"/>
		<line class="st2" x1="-1108.06" y1="598.91" x2="1560.15" y2="2149.35"/>
		<line class="st2" x1="-1134.39" y1="614.12" x2="1533.82" y2="2164.56"/>
		<line class="st2" x1="-1160.72" y1="629.32" x2="1507.49" y2="2179.76"/>
		<line class="st2" x1="-1187.06" y1="644.52" x2="1481.16" y2="2194.96"/>
		<line class="st2" x1="-1213.39" y1="659.73" x2="1454.82" y2="2210.17"/>
		<line class="st2" x1="-1239.72" y1="674.93" x2="1428.49" y2="2225.37"/>
		<line class="st2" x1="-1266.05" y1="690.13" x2="1402.16" y2="2240.57"/>
		<line class="st2" x1="-1292.39" y1="705.34" x2="1375.82" y2="2255.78"/>
		<line class="st2" x1="-1318.72" y1="720.54" x2="1349.49" y2="2270.98"/>
		<line class="st2" x1="-1345.05" y1="735.74" x2="1323.16" y2="2286.18"/>
	</g>
</g>
<g id="Text">
	<g>
		<g>
			<polygon class="st3" points="1595.73,499.71 1523.02,458.24 1523.02,481.29 1595.73,522.76 			"/>
			<path class="st3" d="M1579.66,546.3v23.05c0-6.16,4.03-11.53,12.08-16.13c7.86-4.49,17.29-6.73,28.25-6.73
				c0.38,0,0.76,0,1.14,0.01c11.45,0.17,22.29,3.16,32.52,8.99c10.41,5.94,15.76,12.18,16.05,18.71c0.01,0.22,0.01,0.43,0.01,0.65
				v-23.05c0-0.21,0-0.43-0.01-0.65c-0.29-6.53-5.63-12.77-16.05-18.71c-10.22-5.83-21.07-8.82-32.52-8.99
				c-0.38-0.01-0.76-0.01-1.14-0.01c-10.97,0-20.39,2.24-28.25,6.73C1583.69,534.76,1579.66,540.14,1579.66,546.3z"/>
			<path class="st3" d="M1733.17,578.12l-22.15-12.64v18.75c-0.26,0.61-0.54,1.22-0.85,1.83c-3.59,7.03-10.79,13.61-21.58,19.77
				c-12.69,7.23-27.5,11.91-44.44,14.01c-6.18,0.77-12.45,1.16-18.81,1.16c-11.1,0-22.48-1.17-34.15-3.5
				c-18.36-3.66-35.78-10.2-52.25-19.6c-16.47-9.4-27.87-19.31-34.22-29.73c-3.97-6.53-5.96-12.91-5.96-19.16v23.05
				c0,6.25,1.99,12.64,5.96,19.16c6.34,10.42,17.75,20.33,34.22,29.73c16.47,9.4,33.89,15.94,52.25,19.6
				c11.67,2.33,23.06,3.5,34.15,3.5c6.36,0,12.64-0.39,18.81-1.16c16.95-2.1,31.75-6.78,44.44-14.01
				c10.79-6.16,17.99-12.74,21.58-19.77c1.95-3.81,2.93-7.57,2.93-11.29v-8.11l20.07,11.45l55.94-31.91v-23.05L1733.17,578.12z"/>
			<path class="st3" d="M1385.81,599.96c2.92-1.17,5.77-2.54,8.57-4.14c9.66-5.5,14.77-11.5,15.34-17.98
				c0.04-0.42,0.06-0.84,0.06-1.26v-23.05c0,0.41-0.02,0.83-0.06,1.26c-0.57,6.48-5.68,12.48-15.34,17.98
				c-9.85,5.62-20.44,8.59-31.81,8.91c-0.75,0.02-1.49,0.03-2.23,0.03c-10.41,0-19.41-2.17-27.02-6.51
				c-7.88-4.5-11.82-9.8-11.82-15.9v23.05c0,6.1,3.94,11.39,11.82,15.9c7.61,4.34,16.61,6.51,27.02,6.51c0.74,0,1.48-0.01,2.23-0.03
				c6.4-0.18,12.55-1.2,18.46-3.06v18.61l159.32,90.89l55.66-31.76v-23.05l-55.66,31.76L1385.81,599.96z"/>
			<path class="st3" d="M1264.61,689.58c-0.83-2.51-1.24-5.06-1.24-7.63v23.05c0,2.57,0.41,5.11,1.24,7.63V689.58z"/>
			<path class="st3" d="M1368.54,688.61c-9.08-5.18-18.6-7.91-28.54-8.18c-0.57-0.02-1.13-0.02-1.7-0.02
				c-9.26,0-17.64,2.14-25.14,6.42c-7.88,4.5-11.82,9.41-11.82,14.72v23.05c0-5.31,3.94-10.22,11.82-14.72
				c7.5-4.28,15.88-6.42,25.14-6.42c0.56,0,1.13,0.01,1.7,0.02c9.94,0.27,19.46,3,28.54,8.18l85.48,48.76l55.66-31.76v-23.05
				l-55.66,31.76L1368.54,688.61z"/>
			<polygon class="st3" points="1120.91,770.91 1098.75,758.27 1098.75,781.33 1120.91,793.96 			"/>
			<polygon class="st3" points="1135.39,679.37 1135.39,702.43 1345.53,822.31 1401.2,790.57 1401.2,767.51 1345.53,799.26 			"/>
			<path class="st3" d="M1104.28,817.49v23.05c0-6.15,4.03-11.52,12.08-16.12c7.86-4.49,17.29-6.73,28.25-6.73
				c0.38,0,0.76,0,1.14,0.01c11.45,0.16,22.29,3.16,32.51,8.99c10.42,5.94,15.77,12.18,16.05,18.71c0.01,0.22,0.01,0.44,0.01,0.67
				v-23.05c0-0.22,0-0.44-0.01-0.67c-0.28-6.53-5.62-12.77-16.05-18.71c-10.21-5.83-21.06-8.83-32.51-8.99
				c-0.38-0.01-0.76-0.01-1.14-0.01c-10.97,0-20.39,2.24-28.25,6.73C1108.31,805.97,1104.28,811.34,1104.28,817.49z"/>
			<path class="st3" d="M1235.92,836.52v18.54c-0.3,0.71-0.63,1.41-1,2.12c-3.69,7.08-10.93,13.69-21.73,19.84
				c-12.68,7.24-27.49,11.92-44.44,14.02c-6.18,0.77-12.45,1.15-18.81,1.15c-11.09,0-22.48-1.17-34.14-3.5
				c-18.37-3.67-35.78-10.21-52.25-19.6c-16.47-9.4-27.87-19.31-34.22-29.73c-4.01-6.59-6.01-13.02-6.01-19.31v23.05
				c0,6.29,2,12.72,6.01,19.31c6.35,10.42,17.75,20.33,34.22,29.73c16.47,9.39,33.88,15.93,52.25,19.6
				c11.67,2.33,23.05,3.5,34.14,3.5c6.37,0,12.64-0.38,18.81-1.15c16.95-2.1,31.76-6.78,44.44-14.02
				c10.8-6.15,18.04-12.76,21.73-19.84c2.03-3.88,3.04-7.71,3.04-11.48v-8.01l20.1,11.47l55.66-31.76V817.4l-55.66,31.76
				L1235.92,836.52z"/>
			<polygon class="st3" points="934.33,985.57 903.66,874.11 821.31,921.1 776.44,895.49 776.44,918.55 821.31,944.15 
				903.66,897.16 934.33,1008.62 976.65,1032.77 1122.33,949.65 1122.33,926.6 976.65,1009.72 			"/>
		</g>
		<g>
			<polygon class="st4" points="1595.73,476.6 1523.02,435.13 1523.02,458.19 1595.73,499.66 			"/>
			<path class="st4" d="M1579.66,523.19v23.05c0-6.16,4.03-11.53,12.08-16.13c7.86-4.49,17.29-6.73,28.25-6.73
				c0.38,0,0.76,0,1.14,0.01c11.45,0.17,22.29,3.16,32.52,8.99c10.41,5.94,15.76,12.18,16.05,18.71c0.01,0.22,0.01,0.43,0.01,0.65
				v-23.05c0-0.21,0-0.43-0.01-0.65c-0.29-6.53-5.63-12.77-16.05-18.71c-10.22-5.83-21.07-8.82-32.52-8.99
				c-0.38-0.01-0.76-0.01-1.14-0.01c-10.97,0-20.39,2.24-28.25,6.73C1583.69,511.66,1579.66,517.03,1579.66,523.19z"/>
			<path class="st4" d="M1733.17,555.01l-22.15-12.64v18.75c-0.26,0.61-0.54,1.22-0.85,1.83c-3.59,7.03-10.79,13.61-21.58,19.77
				c-12.69,7.23-27.5,11.91-44.44,14.01c-6.18,0.77-12.45,1.16-18.81,1.16c-11.1,0-22.48-1.17-34.15-3.5
				c-18.36-3.66-35.78-10.2-52.25-19.6c-16.47-9.4-27.87-19.31-34.22-29.73c-3.97-6.53-5.96-12.91-5.96-19.16v23.05
				c0,6.25,1.99,12.64,5.96,19.16c6.34,10.42,17.75,20.33,34.22,29.73c16.47,9.4,33.89,15.94,52.25,19.6
				c11.67,2.33,23.06,3.5,34.15,3.5c6.36,0,12.64-0.39,18.81-1.16c16.95-2.1,31.75-6.78,44.44-14.01
				c10.79-6.16,17.99-12.74,21.58-19.77c1.95-3.81,2.93-7.57,2.93-11.29v-8.11l20.07,11.45l55.94-31.91V523.1L1733.17,555.01z"/>
			<path class="st4" d="M1385.81,576.86c2.92-1.17,5.77-2.54,8.57-4.14c9.66-5.5,14.77-11.5,15.34-17.98
				c0.04-0.42,0.06-0.84,0.06-1.26v-23.05c0,0.41-0.02,0.83-0.06,1.26c-0.57,6.48-5.68,12.48-15.34,17.98
				c-9.85,5.62-20.44,8.59-31.81,8.91c-0.75,0.02-1.49,0.03-2.23,0.03c-10.41,0-19.41-2.17-27.02-6.51
				c-7.88-4.5-11.82-9.8-11.82-15.9v23.05c0,6.1,3.94,11.39,11.82,15.9c7.61,4.34,16.61,6.51,27.02,6.51c0.74,0,1.48-0.01,2.23-0.03
				c6.4-0.18,12.55-1.2,18.46-3.06v18.61l159.32,90.89l55.66-31.76v-23.05l-55.66,31.76L1385.81,576.86z"/>
			<path class="st4" d="M1264.61,666.48c-0.83-2.51-1.24-5.06-1.24-7.63v23.05c0,2.57,0.41,5.11,1.24,7.63V666.48z"/>
			<path class="st4" d="M1368.54,665.51c-9.08-5.18-18.6-7.91-28.54-8.18c-0.57-0.02-1.13-0.02-1.7-0.02
				c-9.26,0-17.64,2.14-25.14,6.42c-7.88,4.5-11.82,9.41-11.82,14.72v23.05c0-5.31,3.94-10.22,11.82-14.72
				c7.5-4.28,15.88-6.42,25.14-6.42c0.56,0,1.13,0.01,1.7,0.02c9.94,0.27,19.46,3,28.54,8.18l85.48,48.76l55.66-31.76v-23.05
				l-55.66,31.76L1368.54,665.51z"/>
			<polygon class="st4" points="1120.91,747.81 1098.75,735.17 1098.75,758.22 1120.91,770.86 			"/>
			<polygon class="st4" points="1135.39,656.27 1135.39,679.32 1345.53,799.21 1401.2,767.46 1401.2,744.41 1345.53,776.16 			"/>
			<path class="st4" d="M1104.28,794.39v23.05c0-6.15,4.03-11.52,12.08-16.12c7.86-4.49,17.29-6.73,28.25-6.73
				c0.38,0,0.76,0,1.14,0.01c11.45,0.16,22.29,3.16,32.51,8.99c10.42,5.94,15.77,12.18,16.05,18.71c0.01,0.22,0.01,0.44,0.01,0.67
				v-23.05c0-0.22,0-0.44-0.01-0.67c-0.28-6.53-5.62-12.77-16.05-18.71c-10.21-5.83-21.06-8.83-32.51-8.99
				c-0.38-0.01-0.76-0.01-1.14-0.01c-10.97,0-20.39,2.24-28.25,6.73C1108.31,782.86,1104.28,788.24,1104.28,794.39z"/>
			<path class="st4" d="M1235.92,813.42v18.54c-0.3,0.71-0.63,1.41-1,2.12c-3.69,7.08-10.93,13.69-21.73,19.84
				c-12.68,7.24-27.49,11.92-44.44,14.02c-6.18,0.77-12.45,1.15-18.81,1.15c-11.09,0-22.48-1.17-34.14-3.5
				c-18.37-3.67-35.78-10.21-52.25-19.6c-16.47-9.4-27.87-19.31-34.22-29.73c-4.01-6.59-6.01-13.02-6.01-19.31V820
				c0,6.29,2,12.72,6.01,19.31c6.35,10.42,17.75,20.33,34.22,29.73c16.47,9.39,33.88,15.93,52.25,19.6
				c11.67,2.33,23.05,3.5,34.14,3.5c6.37,0,12.64-0.38,18.81-1.15c16.95-2.1,31.76-6.78,44.44-14.02
				c10.8-6.15,18.04-12.76,21.73-19.84c2.03-3.88,3.04-7.71,3.04-11.48v-8.01l20.1,11.47l55.66-31.76V794.3l-55.66,31.76
				L1235.92,813.42z"/>
			<polygon class="st4" points="934.33,962.47 903.66,851 821.31,897.99 776.44,872.39 776.44,895.44 821.31,921.04 903.66,874.05 
				934.33,985.52 976.65,1009.66 1122.33,926.55 1122.33,903.5 976.65,986.61 			"/>
		</g>
		<g>
			<polygon class="st5" points="1595.68,453.65 1522.98,412.18 1522.98,435.23 1595.68,476.7 			"/>
			<path class="st5" d="M1579.62,500.24v23.05c0-6.16,4.03-11.53,12.08-16.13c7.86-4.49,17.29-6.73,28.25-6.73
				c0.38,0,0.76,0,1.14,0.01c11.45,0.17,22.29,3.16,32.52,8.99c10.41,5.94,15.76,12.18,16.05,18.71c0.01,0.22,0.01,0.43,0.01,0.65
				v-23.05c0-0.21,0-0.43-0.01-0.65c-0.29-6.53-5.63-12.77-16.05-18.71c-10.22-5.83-21.07-8.82-32.52-8.99
				c-0.38-0.01-0.76-0.01-1.14-0.01c-10.97,0-20.39,2.24-28.25,6.73C1583.65,488.7,1579.62,494.08,1579.62,500.24z"/>
			<path class="st5" d="M1733.13,532.06l-22.15-12.64v18.75c-0.26,0.61-0.54,1.22-0.85,1.83c-3.59,7.03-10.79,13.61-21.58,19.77
				c-12.69,7.23-27.5,11.91-44.44,14.01c-6.18,0.77-12.45,1.16-18.81,1.16c-11.1,0-22.48-1.17-34.15-3.5
				c-18.36-3.66-35.78-10.2-52.25-19.6c-16.47-9.4-27.87-19.31-34.22-29.73c-3.97-6.53-5.96-12.91-5.96-19.16v23.05
				c0,6.25,1.99,12.64,5.96,19.16c6.34,10.42,17.75,20.33,34.22,29.73c16.47,9.4,33.89,15.94,52.25,19.6
				c11.67,2.33,23.06,3.5,34.15,3.5c6.36,0,12.64-0.39,18.81-1.16c16.95-2.1,31.75-6.78,44.44-14.01
				c10.79-6.16,17.99-12.74,21.58-19.77c1.95-3.81,2.93-7.57,2.93-11.29v-8.11l20.07,11.45l55.94-31.91v-23.05L1733.13,532.06z"/>
			<path class="st5" d="M1385.77,553.9c2.92-1.17,5.77-2.54,8.57-4.14c9.66-5.5,14.77-11.5,15.34-17.98
				c0.04-0.42,0.06-0.84,0.06-1.26v-23.05c0,0.41-0.02,0.83-0.06,1.26c-0.57,6.48-5.68,12.48-15.34,17.98
				c-9.85,5.62-20.44,8.59-31.81,8.91c-0.75,0.02-1.49,0.03-2.23,0.03c-10.41,0-19.41-2.17-27.02-6.51
				c-7.88-4.5-11.82-9.8-11.82-15.9v23.05c0,6.1,3.94,11.39,11.82,15.9c7.61,4.34,16.61,6.51,27.02,6.51c0.74,0,1.48-0.01,2.23-0.03
				c6.4-0.18,12.55-1.2,18.46-3.06v18.61l159.32,90.89l55.66-31.76v-23.05l-55.66,31.76L1385.77,553.9z"/>
			<path class="st5" d="M1264.56,643.52c-0.83-2.51-1.24-5.06-1.24-7.63v23.05c0,2.57,0.41,5.11,1.24,7.63V643.52z"/>
			<path class="st5" d="M1368.49,642.55c-9.08-5.18-18.6-7.91-28.54-8.18c-0.57-0.02-1.13-0.02-1.7-0.02
				c-9.26,0-17.64,2.14-25.14,6.42c-7.88,4.5-11.82,9.41-11.82,14.72v23.05c0-5.31,3.94-10.22,11.82-14.72
				c7.5-4.28,15.88-6.42,25.14-6.42c0.56,0,1.13,0.01,1.7,0.02c9.94,0.27,19.46,3,28.54,8.18l85.48,48.76l55.66-31.76v-23.05
				l-55.66,31.76L1368.49,642.55z"/>
			<polygon class="st5" points="1120.87,724.85 1098.71,712.21 1098.71,735.27 1120.87,747.9 			"/>
			<polygon class="st5" points="1135.35,633.31 1135.35,656.37 1345.49,776.25 1401.16,744.51 1401.16,721.45 1345.49,753.2 			"/>
			<path class="st5" d="M1104.24,771.43v23.05c0-6.15,4.03-11.52,12.08-16.12c7.86-4.49,17.29-6.73,28.25-6.73
				c0.38,0,0.76,0,1.14,0.01c11.45,0.16,22.29,3.16,32.51,8.99c10.42,5.94,15.77,12.18,16.05,18.71c0.01,0.22,0.01,0.44,0.01,0.67
				v-23.05c0-0.22,0-0.44-0.01-0.67c-0.28-6.53-5.62-12.77-16.05-18.71c-10.21-5.83-21.06-8.83-32.51-8.99
				c-0.38-0.01-0.76-0.01-1.14-0.01c-10.97,0-20.39,2.24-28.25,6.73C1108.27,759.91,1104.24,765.28,1104.24,771.43z"/>
			<path class="st5" d="M1235.88,790.46V809c-0.3,0.71-0.63,1.41-1,2.12c-3.69,7.08-10.93,13.69-21.73,19.84
				c-12.68,7.24-27.49,11.92-44.44,14.02c-6.18,0.77-12.45,1.15-18.81,1.15c-11.09,0-22.48-1.17-34.14-3.5
				c-18.37-3.67-35.78-10.21-52.25-19.6c-16.47-9.4-27.87-19.31-34.22-29.73c-4.01-6.59-6.01-13.02-6.01-19.31v23.05
				c0,6.29,2,12.72,6.01,19.31c6.35,10.42,17.75,20.33,34.22,29.73c16.47,9.39,33.88,15.93,52.25,19.6
				c11.67,2.33,23.05,3.5,34.14,3.5c6.37,0,12.64-0.38,18.81-1.15c16.95-2.1,31.76-6.78,44.44-14.02
				c10.8-6.15,18.04-12.76,21.73-19.84c2.03-3.88,3.04-7.71,3.04-11.48v-8.01l20.1,11.47l55.66-31.76v-23.05l-55.66,31.76
				L1235.88,790.46z"/>
			<polygon class="st5" points="934.29,939.51 903.62,828.05 821.27,875.04 776.39,849.43 776.39,872.49 821.27,898.09 
				903.62,851.1 934.29,962.56 976.61,986.71 1122.29,903.59 1122.29,880.54 976.61,963.66 			"/>
		</g>
		<g>
			<polygon class="st6" points="1595.68,430.81 1522.98,389.34 1522.98,412.4 1595.68,453.86 			"/>
			<path class="st6" d="M1579.62,477.4v23.05c0-6.16,4.03-11.53,12.08-16.13c7.86-4.49,17.29-6.73,28.25-6.73
				c0.38,0,0.76,0,1.14,0.01c11.45,0.17,22.29,3.16,32.52,8.99c10.41,5.94,15.76,12.18,16.05,18.71c0.01,0.22,0.01,0.43,0.01,0.65
				V482.9c0-0.21,0-0.43-0.01-0.65c-0.29-6.53-5.63-12.77-16.05-18.71c-10.22-5.83-21.07-8.82-32.52-8.99
				c-0.38-0.01-0.76-0.01-1.14-0.01c-10.97,0-20.39,2.24-28.25,6.73C1583.65,465.87,1579.62,471.24,1579.62,477.4z"/>
			<path class="st6" d="M1733.13,509.22l-22.15-12.64v18.75c-0.26,0.61-0.54,1.22-0.85,1.83c-3.59,7.03-10.79,13.61-21.58,19.77
				c-12.69,7.23-27.5,11.91-44.44,14.01c-6.18,0.77-12.45,1.16-18.81,1.16c-11.1,0-22.48-1.17-34.15-3.5
				c-18.36-3.66-35.78-10.2-52.25-19.6c-16.47-9.4-27.87-19.31-34.22-29.73c-3.97-6.53-5.96-12.91-5.96-19.16v23.05
				c0,6.25,1.99,12.64,5.96,19.16c6.34,10.42,17.75,20.33,34.22,29.73c16.47,9.4,33.89,15.94,52.25,19.6
				c11.67,2.33,23.06,3.5,34.15,3.5c6.36,0,12.64-0.39,18.81-1.16c16.95-2.1,31.75-6.78,44.44-14.01
				c10.79-6.16,17.99-12.74,21.58-19.77c1.95-3.81,2.93-7.57,2.93-11.29v-8.11l20.07,11.45l55.94-31.91v-23.05L1733.13,509.22z"/>
			<path class="st6" d="M1385.77,531.07c2.92-1.17,5.77-2.54,8.57-4.14c9.66-5.5,14.77-11.5,15.34-17.98
				c0.04-0.42,0.06-0.84,0.06-1.26v-23.05c0,0.41-0.02,0.83-0.06,1.26c-0.57,6.48-5.68,12.48-15.34,17.98
				c-9.85,5.62-20.44,8.59-31.81,8.91c-0.75,0.02-1.49,0.03-2.23,0.03c-10.41,0-19.41-2.17-27.02-6.51
				c-7.88-4.5-11.82-9.8-11.82-15.9v23.05c0,6.1,3.94,11.39,11.82,15.9c7.61,4.34,16.61,6.51,27.02,6.51c0.74,0,1.48-0.01,2.23-0.03
				c6.4-0.18,12.55-1.2,18.46-3.06v18.61l159.32,90.89l55.66-31.76v-23.05l-55.66,31.76L1385.77,531.07z"/>
			<path class="st6" d="M1264.56,620.69c-0.83-2.51-1.24-5.06-1.24-7.63v23.05c0,2.57,0.41,5.11,1.24,7.63V620.69z"/>
			<path class="st6" d="M1368.49,619.72c-9.08-5.18-18.6-7.91-28.54-8.18c-0.57-0.02-1.13-0.02-1.7-0.02
				c-9.26,0-17.64,2.14-25.14,6.42c-7.88,4.5-11.82,9.41-11.82,14.72v23.05c0-5.31,3.94-10.22,11.82-14.72
				c7.5-4.28,15.88-6.42,25.14-6.42c0.56,0,1.13,0.01,1.7,0.02c9.94,0.27,19.46,3,28.54,8.18l85.48,48.76l55.66-31.76v-23.05
				l-55.66,31.76L1368.49,619.72z"/>
			<polygon class="st6" points="1120.87,702.01 1098.71,689.38 1098.71,712.43 1120.87,725.07 			"/>
			<polygon class="st6" points="1135.35,610.48 1135.35,633.53 1345.49,753.42 1401.16,721.67 1401.16,698.62 1345.49,730.37 			"/>
			<path class="st6" d="M1104.24,748.6v23.05c0-6.15,4.03-11.52,12.08-16.12c7.86-4.49,17.29-6.73,28.25-6.73
				c0.38,0,0.76,0,1.14,0.01c11.45,0.16,22.29,3.16,32.51,8.99c10.42,5.94,15.77,12.18,16.05,18.71c0.01,0.22,0.01,0.44,0.01,0.67
				v-23.05c0-0.22,0-0.44-0.01-0.67c-0.28-6.53-5.62-12.77-16.05-18.71c-10.21-5.83-21.06-8.83-32.51-8.99
				c-0.38-0.01-0.76-0.01-1.14-0.01c-10.97,0-20.39,2.24-28.25,6.73C1108.27,737.07,1104.24,742.44,1104.24,748.6z"/>
			<path class="st6" d="M1235.88,767.63v18.54c-0.3,0.71-0.63,1.41-1,2.12c-3.69,7.08-10.93,13.69-21.73,19.84
				c-12.68,7.24-27.49,11.92-44.44,14.02c-6.18,0.77-12.45,1.15-18.81,1.15c-11.09,0-22.48-1.17-34.14-3.5
				c-18.37-3.67-35.78-10.21-52.25-19.6c-16.47-9.4-27.87-19.31-34.22-29.73c-4.01-6.59-6.01-13.02-6.01-19.31v23.05
				c0,6.29,2,12.72,6.01,19.31c6.35,10.42,17.75,20.33,34.22,29.73c16.47,9.39,33.88,15.93,52.25,19.6
				c11.67,2.33,23.05,3.5,34.14,3.5c6.37,0,12.64-0.38,18.81-1.15c16.95-2.1,31.76-6.78,44.44-14.02
				c10.8-6.15,18.04-12.76,21.73-19.84c2.03-3.88,3.04-7.71,3.04-11.48v-8.01l20.1,11.47l55.66-31.76v-23.05l-55.66,31.76
				L1235.88,767.63z"/>
			<polygon class="st6" points="934.29,916.68 903.62,805.21 821.27,852.2 776.39,826.6 776.39,849.65 821.27,875.25 903.62,828.26 
				934.29,939.73 976.61,963.87 1122.29,880.76 1122.29,857.71 976.61,940.82 			"/>
		</g>
		<g>
			<path class="st7" d="M1409.67,485.9c-0.57,6.48-5.68,12.48-15.34,17.98c-9.85,5.62-20.44,8.59-31.81,8.91
				c-0.75,0.02-1.49,0.03-2.23,0.03c-10.41,0-19.41-2.17-27.02-6.51c-8.33-4.76-12.25-10.4-11.78-16.93
				c0.48-6.54,5.63-12.61,15.48-18.23c9.65-5.5,20.2-8.39,31.66-8.66c0.61-0.01,1.22-0.02,1.82-0.02c10.69,0,19.97,2.24,27.85,6.74
				C1406.46,473.85,1410.24,479.41,1409.67,485.9z"/>
			<path class="st7" d="M1789.07,477.31l-55.94,31.91l-22.15-12.64c3.02,6.71,2.74,13.56-0.85,20.58
				c-3.59,7.03-10.79,13.61-21.58,19.77c-12.69,7.23-27.49,11.91-44.44,14.01c-6.18,0.77-12.45,1.16-18.81,1.16
				c-11.1,0-22.48-1.17-34.15-3.5c-18.36-3.66-35.78-10.2-52.25-19.6c-16.47-9.4-27.87-19.31-34.22-29.73
				c-6.35-10.42-7.62-20.49-3.83-30.21c3.78-9.72,12.02-18.2,24.7-25.44c10.22-5.82,21.48-9.83,33.8-11.99
				c7.03-1.23,14-1.85,20.9-1.85c5.19,0,10.33,0.35,15.45,1.04l-72.7-41.47l55.94-31.92L1789.07,477.31z M1657.87,499.02
				c8.14-4.64,12.07-10.24,11.79-16.77c-0.29-6.53-5.63-12.77-16.05-18.71c-10.22-5.83-21.07-8.82-32.52-8.99
				c-0.38-0.01-0.76-0.01-1.14-0.01c-10.97,0-20.39,2.24-28.25,6.73c-8.33,4.76-12.36,10.34-12.07,16.77
				c0.29,6.43,5.63,12.61,16.05,18.55c10.22,5.82,21.06,8.88,32.52,9.15c0.61,0.01,1.21,0.02,1.81,0.02
				C1640.69,505.77,1649.98,503.52,1657.87,499.02"/>
			<polygon class="st7" points="1436.65,496.58 1595.96,587.47 1540.3,619.23 1380.99,528.34 			"/>
			<path class="st7" d="M1345.94,564.54c1.73,0,3.48,0.03,5.24,0.1c22.9,0.86,44.78,7.23,65.59,19.11l92.86,52.98l-55.66,31.76
				l-85.48-48.76c-9.08-5.18-18.6-7.91-28.54-8.18c-0.57-0.02-1.13-0.02-1.7-0.02c-9.26,0-17.64,2.14-25.14,6.42
				c-8.33,4.76-12.26,9.97-11.78,15.63c0.48,5.67,5.26,11.1,14.34,16.28l85.48,48.77l-55.67,31.75l-210.14-119.89l55.66-31.75
				l73.56,41.96c-2.28-6.91-1.42-14.04,2.56-21.39c3.97-7.34,11.45-14.15,22.43-20.41C1306.33,569.32,1325.12,564.54,1345.94,564.54
				z"/>
			<path class="st7" d="M1313.69,748.51l-55.66,31.76l-22.15-12.64c3.02,6.7,2.7,13.59-1,20.66c-3.69,7.08-10.93,13.69-21.73,19.84
				c-12.68,7.24-27.49,11.92-44.44,14.02c-6.18,0.77-12.45,1.15-18.81,1.15c-11.09,0-22.48-1.17-34.14-3.5
				c-18.37-3.67-35.78-10.21-52.25-19.6c-16.47-9.4-27.87-19.31-34.22-29.73c-6.34-10.42-7.67-20.46-3.98-30.14
				c3.69-9.66,11.88-18.12,24.56-25.35c10.98-6.26,22.63-10.41,34.93-12.47c6.68-1.12,13.28-1.67,19.8-1.67
				c5.48,0,10.91,0.39,16.28,1.18l-22.16-12.64l55.67-31.76L1313.69,748.51z M1182.49,770.22c8.14-4.64,12.07-10.24,11.78-16.77
				c-0.28-6.53-5.62-12.77-16.05-18.71c-10.21-5.83-21.06-8.83-32.51-8.99c-0.38-0.01-0.76-0.01-1.14-0.01
				c-10.97,0-20.39,2.24-28.25,6.73c-8.33,4.76-12.36,10.34-12.07,16.76c0.28,6.43,5.63,12.62,16.05,18.55
				c10.21,5.83,21.05,8.88,32.51,9.16c0.61,0.01,1.21,0.02,1.81,0.02C1165.32,776.97,1174.6,774.72,1182.49,770.22"/>
			<polygon class="st7" points="922.08,743.49 964.39,767.63 993.92,879.41 1077.14,831.94 1122.29,857.71 976.61,940.82 
				934.29,916.68 903.62,805.21 821.27,852.2 776.39,826.6 			"/>
		</g>
	</g>
	<g>
		<g>
			<polygon class="st8" points="100.09,-1137.12 27.39,-1178.59 27.39,-1155.53 100.09,-1114.07 			"/>
			<path class="st8" d="M84.03-1090.53v23.05c0-6.16,4.03-11.53,12.08-16.13c7.86-4.49,17.29-6.73,28.25-6.73
				c0.38,0,0.76,0,1.14,0.01c11.45,0.17,22.29,3.16,32.52,8.99c10.41,5.94,15.76,12.18,16.05,18.71c0.01,0.22,0.01,0.43,0.01,0.65
				v-23.05c0-0.21,0-0.43-0.01-0.65c-0.29-6.53-5.63-12.77-16.05-18.71c-10.22-5.83-21.07-8.82-32.52-8.99
				c-0.38-0.01-0.76-0.01-1.14-0.01c-10.97,0-20.39,2.24-28.25,6.73C88.05-1102.06,84.03-1096.69,84.03-1090.53z"/>
			<path class="st8" d="M237.54-1058.71l-22.15-12.64v18.75c-0.26,0.61-0.54,1.22-0.85,1.83c-3.59,7.03-10.79,13.61-21.58,19.77
				c-12.69,7.23-27.5,11.91-44.44,14.01c-6.18,0.77-12.45,1.16-18.81,1.16c-11.1,0-22.48-1.17-34.15-3.5
				c-18.36-3.66-35.78-10.2-52.25-19.6c-16.47-9.4-27.87-19.31-34.22-29.73c-3.97-6.53-5.96-12.91-5.96-19.16v23.05
				c0,6.25,1.99,12.64,5.96,19.16c6.34,10.42,17.75,20.33,34.22,29.73c16.47,9.4,33.89,15.94,52.25,19.6
				c11.67,2.33,23.06,3.5,34.15,3.5c6.36,0,12.64-0.39,18.81-1.16c16.95-2.1,31.75-6.78,44.44-14.01
				c10.79-6.16,17.99-12.74,21.58-19.77c1.95-3.81,2.93-7.57,2.93-11.29v-8.11l20.07,11.45l55.94-31.91v-23.05L237.54-1058.71z"/>
			<path class="st8" d="M-109.83-1036.86c2.92-1.17,5.77-2.54,8.57-4.14c9.66-5.5,14.77-11.5,15.34-17.98
				c0.04-0.42,0.06-0.84,0.06-1.26v-23.05c0,0.41-0.02,0.83-0.06,1.26c-0.57,6.48-5.68,12.48-15.34,17.98
				c-9.85,5.62-20.44,8.59-31.81,8.91c-0.75,0.02-1.49,0.03-2.23,0.03c-10.41,0-19.41-2.17-27.02-6.51
				c-7.88-4.5-11.82-9.8-11.82-15.9v23.05c0,6.1,3.94,11.39,11.82,15.9c7.61,4.34,16.61,6.51,27.02,6.51c0.74,0,1.48-0.01,2.23-0.03
				c6.4-0.18,12.55-1.2,18.46-3.06v18.61l159.32,90.89l55.66-31.76v-23.05L44.71-948.7L-109.83-1036.86z"/>
			<path class="st8" d="M-231.03-947.24c-0.83-2.51-1.24-5.06-1.24-7.63v23.05c0,2.57,0.41,5.11,1.24,7.63V-947.24z"/>
			<path class="st8" d="M-127.1-948.21c-9.08-5.18-18.6-7.91-28.54-8.18c-0.57-0.02-1.13-0.02-1.7-0.02
				c-9.26,0-17.64,2.14-25.14,6.42c-7.88,4.5-11.82,9.41-11.82,14.72v23.05c0-5.31,3.94-10.22,11.82-14.72
				c7.5-4.28,15.88-6.42,25.14-6.42c0.56,0,1.13,0.01,1.7,0.02c9.94,0.27,19.46,3,28.54,8.18l85.48,48.76l55.66-31.76v-23.05
				l-55.66,31.76L-127.1-948.21z"/>
			<polygon class="st8" points="-374.73,-865.92 -396.88,-878.55 -396.88,-855.5 -374.73,-842.86 			"/>
			<polygon class="st8" points="-360.24,-957.45 -360.24,-934.4 -150.1,-814.51 -94.44,-846.26 -94.44,-869.31 -150.1,-837.56 			
				"/>
			<path class="st8" d="M-391.35-819.33v23.05c0-6.15,4.03-11.52,12.08-16.12c7.86-4.49,17.29-6.73,28.25-6.73
				c0.38,0,0.76,0,1.14,0.01c11.45,0.16,22.29,3.16,32.51,8.99c10.42,5.94,15.77,12.18,16.05,18.71c0.01,0.22,0.01,0.44,0.01,0.67
				v-23.05c0-0.22,0-0.44-0.01-0.67c-0.28-6.53-5.62-12.77-16.05-18.71c-10.21-5.83-21.06-8.83-32.51-8.99
				c-0.38-0.01-0.76-0.01-1.14-0.01c-10.97,0-20.39,2.24-28.25,6.73C-387.33-830.86-391.35-825.49-391.35-819.33z"/>
			<path class="st8" d="M-259.71-800.3v18.54c-0.3,0.71-0.63,1.41-1,2.12c-3.69,7.08-10.93,13.69-21.73,19.84
				c-12.68,7.24-27.49,11.92-44.44,14.02c-6.18,0.77-12.45,1.15-18.81,1.15c-11.09,0-22.48-1.17-34.14-3.5
				c-18.37-3.67-35.78-10.21-52.25-19.6c-16.47-9.4-27.87-19.31-34.22-29.73c-4.01-6.59-6.01-13.02-6.01-19.31v23.05
				c0,6.29,2,12.72,6.01,19.31c6.35,10.42,17.75,20.33,34.22,29.73c16.47,9.39,33.88,15.93,52.25,19.6
				c11.67,2.33,23.05,3.5,34.14,3.5c6.37,0,12.64-0.38,18.81-1.15c16.95-2.1,31.76-6.78,44.44-14.02
				c10.8-6.15,18.04-12.76,21.73-19.84c2.03-3.88,3.04-7.71,3.04-11.48v-8.01l20.1,11.47l55.66-31.76v-23.05l-55.66,31.76
				L-259.71-800.3z"/>
			<polygon class="st8" points="-561.3,-651.25 -591.98,-762.72 -674.33,-715.73 -719.2,-741.33 -719.2,-718.28 -674.33,-692.68 
				-591.98,-739.67 -561.3,-628.2 -518.99,-604.06 -373.3,-687.17 -373.3,-710.22 -518.99,-627.11 			"/>
		</g>
		<g>
			<polygon class="st9" points="100.09,-1157.12 27.39,-1198.59 27.39,-1175.53 100.09,-1134.07 			"/>
			<path class="st9" d="M84.03-1110.53v23.05c0-6.16,4.03-11.53,12.08-16.13c7.86-4.49,17.29-6.73,28.25-6.73
				c0.38,0,0.76,0,1.14,0.01c11.45,0.17,22.29,3.16,32.52,8.99c10.41,5.94,15.76,12.18,16.05,18.71c0.01,0.22,0.01,0.43,0.01,0.65
				v-23.05c0-0.21,0-0.43-0.01-0.65c-0.29-6.53-5.63-12.77-16.05-18.71c-10.22-5.83-21.07-8.82-32.52-8.99
				c-0.38-0.01-0.76-0.01-1.14-0.01c-10.97,0-20.39,2.24-28.25,6.73C88.05-1122.06,84.03-1116.69,84.03-1110.53z"/>
			<path class="st9" d="M237.54-1078.71l-22.15-12.64v18.75c-0.26,0.61-0.54,1.22-0.85,1.83c-3.59,7.03-10.79,13.61-21.58,19.77
				c-12.69,7.23-27.5,11.91-44.44,14.01c-6.18,0.77-12.45,1.16-18.81,1.16c-11.1,0-22.48-1.17-34.15-3.5
				c-18.36-3.66-35.78-10.2-52.25-19.6c-16.47-9.4-27.87-19.31-34.22-29.73c-3.97-6.53-5.96-12.91-5.96-19.16v23.05
				c0,6.25,1.99,12.64,5.96,19.16c6.34,10.42,17.75,20.33,34.22,29.73c16.47,9.4,33.89,15.94,52.25,19.6
				c11.67,2.33,23.06,3.5,34.15,3.5c6.36,0,12.64-0.39,18.81-1.16c16.95-2.1,31.75-6.78,44.44-14.01
				c10.79-6.16,17.99-12.74,21.58-19.77c1.95-3.81,2.93-7.57,2.93-11.29v-8.11l20.07,11.45l55.94-31.91v-23.05L237.54-1078.71z"/>
			<path class="st9" d="M-109.83-1056.86c2.92-1.17,5.77-2.54,8.57-4.14c9.66-5.5,14.77-11.5,15.34-17.98
				c0.04-0.42,0.06-0.84,0.06-1.26v-23.05c0,0.41-0.02,0.83-0.06,1.26c-0.57,6.48-5.68,12.48-15.34,17.98
				c-9.85,5.62-20.44,8.59-31.81,8.91c-0.75,0.02-1.49,0.03-2.23,0.03c-10.41,0-19.41-2.17-27.02-6.51
				c-7.88-4.5-11.82-9.8-11.82-15.9v23.05c0,6.1,3.94,11.39,11.82,15.9c7.61,4.34,16.61,6.51,27.02,6.51c0.74,0,1.48-0.01,2.23-0.03
				c6.4-0.18,12.55-1.2,18.46-3.06v18.61l159.32,90.89l55.66-31.76v-23.05L44.71-968.7L-109.83-1056.86z"/>
			<path class="st9" d="M-231.03-967.24c-0.83-2.51-1.24-5.06-1.24-7.63v23.05c0,2.57,0.41,5.11,1.24,7.63V-967.24z"/>
			<path class="st9" d="M-127.1-968.21c-9.08-5.18-18.6-7.91-28.54-8.18c-0.57-0.02-1.13-0.02-1.7-0.02
				c-9.26,0-17.64,2.14-25.14,6.42c-7.88,4.5-11.82,9.41-11.82,14.72v23.05c0-5.31,3.94-10.22,11.82-14.72
				c7.5-4.28,15.88-6.42,25.14-6.42c0.56,0,1.13,0.01,1.7,0.02c9.94,0.27,19.46,3,28.54,8.18l85.48,48.76l55.66-31.76v-23.05
				l-55.66,31.76L-127.1-968.21z"/>
			<polygon class="st9" points="-374.73,-885.92 -396.88,-898.55 -396.88,-875.5 -374.73,-862.86 			"/>
			<polygon class="st9" points="-360.24,-977.45 -360.24,-954.4 -150.1,-834.51 -94.44,-866.26 -94.44,-889.31 -150.1,-857.56 			
				"/>
			<path class="st9" d="M-391.35-839.33v23.05c0-6.15,4.03-11.52,12.08-16.12c7.86-4.49,17.29-6.73,28.25-6.73
				c0.38,0,0.76,0,1.14,0.01c11.45,0.16,22.29,3.16,32.51,8.99c10.42,5.94,15.77,12.18,16.05,18.71c0.01,0.22,0.01,0.44,0.01,0.67
				v-23.05c0-0.22,0-0.44-0.01-0.67c-0.28-6.53-5.62-12.77-16.05-18.71c-10.21-5.83-21.06-8.83-32.51-8.99
				c-0.38-0.01-0.76-0.01-1.14-0.01c-10.97,0-20.39,2.24-28.25,6.73C-387.33-850.86-391.35-845.49-391.35-839.33z"/>
			<path class="st9" d="M-259.71-820.3v18.54c-0.3,0.71-0.63,1.41-1,2.12c-3.69,7.08-10.93,13.69-21.73,19.84
				c-12.68,7.24-27.49,11.92-44.44,14.02c-6.18,0.77-12.45,1.15-18.81,1.15c-11.09,0-22.48-1.17-34.14-3.5
				c-18.37-3.67-35.78-10.21-52.25-19.6c-16.47-9.4-27.87-19.31-34.22-29.73c-4.01-6.59-6.01-13.02-6.01-19.31v23.05
				c0,6.29,2,12.72,6.01,19.31c6.35,10.42,17.75,20.33,34.22,29.73c16.47,9.39,33.88,15.93,52.25,19.6
				c11.67,2.33,23.05,3.5,34.14,3.5c6.37,0,12.64-0.38,18.81-1.15c16.95-2.1,31.76-6.78,44.44-14.02
				c10.8-6.15,18.04-12.76,21.73-19.84c2.03-3.88,3.04-7.71,3.04-11.48v-8.01l20.1,11.47l55.66-31.76v-23.05l-55.66,31.76
				L-259.71-820.3z"/>
			<polygon class="st9" points="-561.3,-671.25 -591.98,-782.72 -674.33,-735.73 -719.2,-761.33 -719.2,-738.28 -674.33,-712.68 
				-591.98,-759.67 -561.3,-648.2 -518.99,-624.06 -373.3,-707.17 -373.3,-730.22 -518.99,-647.11 			"/>
		</g>
		<g>
			<polygon class="st10" points="100.04,-1180.08 27.34,-1221.54 27.34,-1198.49 100.04,-1157.02 			"/>
			<path class="st10" d="M83.98-1133.49v23.05c0-6.16,4.03-11.53,12.08-16.13c7.86-4.49,17.29-6.73,28.25-6.73
				c0.38,0,0.76,0,1.14,0.01c11.45,0.17,22.29,3.16,32.52,8.99c10.41,5.94,15.76,12.18,16.05,18.71c0.01,0.22,0.01,0.43,0.01,0.65
				v-23.05c0-0.21,0-0.43-0.01-0.65c-0.29-6.53-5.63-12.77-16.05-18.71c-10.22-5.83-21.07-8.82-32.52-8.99
				c-0.38-0.01-0.76-0.01-1.14-0.01c-10.97,0-20.39,2.24-28.25,6.73C88.01-1145.02,83.98-1139.65,83.98-1133.49z"/>
			<path class="st10" d="M237.49-1101.66l-22.15-12.64v18.75c-0.26,0.61-0.54,1.22-0.85,1.83c-3.59,7.03-10.79,13.61-21.58,19.77
				c-12.69,7.23-27.5,11.91-44.44,14.01c-6.18,0.77-12.45,1.16-18.81,1.16c-11.1,0-22.48-1.17-34.15-3.5
				c-18.36-3.66-35.78-10.2-52.25-19.6c-16.47-9.4-27.87-19.31-34.22-29.73c-3.97-6.53-5.96-12.91-5.96-19.16v23.05
				c0,6.25,1.99,12.64,5.96,19.16c6.34,10.42,17.75,20.33,34.22,29.73c16.47,9.4,33.89,15.94,52.25,19.6
				c11.67,2.33,23.06,3.5,34.15,3.5c6.36,0,12.64-0.39,18.81-1.16c16.95-2.1,31.75-6.78,44.44-14.01
				c10.79-6.16,17.99-12.74,21.58-19.77c1.95-3.81,2.93-7.57,2.93-11.29v-8.11l20.07,11.45l55.94-31.91v-23.05L237.49-1101.66z"/>
			<path class="st10" d="M-109.87-1079.82c2.92-1.17,5.77-2.54,8.57-4.14c9.66-5.5,14.77-11.5,15.34-17.98
				c0.04-0.42,0.06-0.84,0.06-1.26v-23.05c0,0.41-0.02,0.83-0.06,1.26c-0.57,6.48-5.68,12.48-15.34,17.98
				c-9.85,5.62-20.44,8.59-31.81,8.91c-0.75,0.02-1.49,0.03-2.23,0.03c-10.41,0-19.41-2.17-27.02-6.51
				c-7.88-4.5-11.82-9.8-11.82-15.9v23.05c0,6.1,3.94,11.39,11.82,15.9c7.61,4.34,16.61,6.51,27.02,6.51c0.74,0,1.48-0.01,2.23-0.03
				c6.4-0.18,12.55-1.2,18.46-3.06v18.61L44.67-968.6l55.66-31.76v-23.05l-55.66,31.76L-109.87-1079.82z"/>
			<path class="st10" d="M-231.08-990.2c-0.83-2.51-1.24-5.06-1.24-7.63v23.05c0,2.57,0.41,5.11,1.24,7.63V-990.2z"/>
			<path class="st10" d="M-127.14-991.17c-9.08-5.18-18.6-7.91-28.54-8.18c-0.57-0.02-1.13-0.02-1.7-0.02
				c-9.26,0-17.64,2.14-25.14,6.42c-7.88,4.5-11.82,9.41-11.82,14.72v23.05c0-5.31,3.94-10.22,11.82-14.72
				c7.5-4.28,15.88-6.42,25.14-6.42c0.56,0,1.13,0.01,1.7,0.02c9.94,0.27,19.46,3,28.54,8.18l85.48,48.76l55.66-31.76v-23.05
				l-55.66,31.76L-127.14-991.17z"/>
			<polygon class="st10" points="-374.77,-908.87 -396.93,-921.51 -396.93,-898.46 -374.77,-885.82 			"/>
			<polygon class="st10" points="-360.29,-1000.41 -360.29,-977.36 -150.15,-857.47 -94.48,-889.22 -94.48,-912.27 -150.15,-880.52 
							"/>
			<path class="st10" d="M-391.4-862.29v23.05c0-6.15,4.03-11.52,12.08-16.12c7.86-4.49,17.29-6.73,28.25-6.73
				c0.38,0,0.76,0,1.14,0.01c11.45,0.16,22.29,3.16,32.51,8.99c10.42,5.94,15.77,12.18,16.05,18.71c0.01,0.22,0.01,0.44,0.01,0.67
				v-23.05c0-0.22,0-0.44-0.01-0.67c-0.28-6.53-5.62-12.77-16.05-18.71c-10.21-5.83-21.06-8.83-32.51-8.99
				c-0.38-0.01-0.76-0.01-1.14-0.01c-10.97,0-20.39,2.24-28.25,6.73C-387.37-873.81-391.4-868.44-391.4-862.29z"/>
			<path class="st10" d="M-259.76-843.26v18.54c-0.3,0.71-0.63,1.41-1,2.12c-3.69,7.08-10.93,13.69-21.73,19.84
				c-12.68,7.24-27.49,11.92-44.44,14.02c-6.18,0.77-12.45,1.15-18.81,1.15c-11.09,0-22.48-1.17-34.14-3.5
				c-18.37-3.67-35.78-10.21-52.25-19.6c-16.47-9.4-27.87-19.31-34.22-29.73c-4.01-6.59-6.01-13.02-6.01-19.31v23.05
				c0,6.29,2,12.72,6.01,19.31c6.35,10.42,17.75,20.33,34.22,29.73c16.47,9.39,33.88,15.93,52.25,19.6
				c11.67,2.33,23.05,3.5,34.14,3.5c6.37,0,12.64-0.38,18.81-1.15c16.95-2.1,31.76-6.78,44.44-14.02
				c10.8-6.15,18.04-12.76,21.73-19.84c2.03-3.88,3.04-7.71,3.04-11.48v-8.01l20.1,11.47l55.66-31.76v-23.05l-55.66,31.76
				L-259.76-843.26z"/>
			<polygon class="st10" points="-561.35,-694.21 -592.02,-805.68 -674.37,-758.69 -719.24,-784.29 -719.24,-761.24 
				-674.37,-735.63 -592.02,-782.62 -561.35,-671.16 -519.03,-647.01 -373.35,-730.13 -373.35,-753.18 -519.03,-670.07 			"/>
		</g>
		<g>
			<polygon class="st11" points="100.04,-1202.91 27.34,-1244.38 27.34,-1221.33 100.04,-1179.86 			"/>
			<path class="st11" d="M83.98-1156.32v23.05c0-6.16,4.03-11.53,12.08-16.13c7.86-4.49,17.29-6.73,28.25-6.73
				c0.38,0,0.76,0,1.14,0.01c11.45,0.17,22.29,3.16,32.52,8.99c10.41,5.94,15.76,12.18,16.05,18.71c0.01,0.22,0.01,0.43,0.01,0.65
				v-23.05c0-0.21,0-0.43-0.01-0.65c-0.29-6.53-5.63-12.77-16.05-18.71c-10.22-5.83-21.07-8.82-32.52-8.99
				c-0.38-0.01-0.76-0.01-1.14-0.01c-10.97,0-20.39,2.24-28.25,6.73C88.01-1167.85,83.98-1162.48,83.98-1156.32z"/>
			<path class="st11" d="M237.49-1124.5l-22.15-12.64v18.75c-0.26,0.61-0.54,1.22-0.85,1.83c-3.59,7.03-10.79,13.61-21.58,19.77
				c-12.69,7.23-27.5,11.91-44.44,14.01c-6.18,0.77-12.45,1.16-18.81,1.16c-11.1,0-22.48-1.17-34.15-3.5
				c-18.36-3.66-35.78-10.2-52.25-19.6c-16.47-9.4-27.87-19.31-34.22-29.73c-3.97-6.53-5.96-12.91-5.96-19.16v23.05
				c0,6.25,1.99,12.64,5.96,19.16c6.34,10.42,17.75,20.33,34.22,29.73c16.47,9.4,33.89,15.94,52.25,19.6
				c11.67,2.33,23.06,3.5,34.15,3.5c6.36,0,12.64-0.39,18.81-1.16c16.95-2.1,31.75-6.78,44.44-14.01
				c10.79-6.16,17.99-12.74,21.58-19.77c1.95-3.81,2.93-7.57,2.93-11.29v-8.11l20.07,11.45l55.94-31.91v-23.05L237.49-1124.5z"/>
			<path class="st11" d="M-109.87-1102.65c2.92-1.17,5.77-2.54,8.57-4.14c9.66-5.5,14.77-11.5,15.34-17.98
				c0.04-0.42,0.06-0.84,0.06-1.26v-23.05c0,0.41-0.02,0.83-0.06,1.26c-0.57,6.48-5.68,12.48-15.34,17.98
				c-9.85,5.62-20.44,8.59-31.81,8.91c-0.75,0.02-1.49,0.03-2.23,0.03c-10.41,0-19.41-2.17-27.02-6.51
				c-7.88-4.5-11.82-9.8-11.82-15.9v23.05c0,6.1,3.94,11.39,11.82,15.9c7.61,4.34,16.61,6.51,27.02,6.51c0.74,0,1.48-0.01,2.23-0.03
				c6.4-0.18,12.55-1.2,18.46-3.06v18.61l159.32,90.89l55.66-31.76v-23.05l-55.66,31.76L-109.87-1102.65z"/>
			<path class="st11" d="M-231.08-1013.03c-0.83-2.51-1.24-5.06-1.24-7.63v23.05c0,2.57,0.41,5.11,1.24,7.63V-1013.03z"/>
			<path class="st11" d="M-127.14-1014c-9.08-5.18-18.6-7.91-28.54-8.18c-0.57-0.02-1.13-0.02-1.7-0.02
				c-9.26,0-17.64,2.14-25.14,6.42c-7.88,4.5-11.82,9.41-11.82,14.72v23.05c0-5.31,3.94-10.22,11.82-14.72
				c7.5-4.28,15.88-6.42,25.14-6.42c0.56,0,1.13,0.01,1.7,0.02c9.94,0.27,19.46,3,28.54,8.18l85.48,48.76l55.66-31.76V-997
				l-55.66,31.76L-127.14-1014z"/>
			<polygon class="st11" points="-374.77,-931.71 -396.93,-944.34 -396.93,-921.29 -374.77,-908.65 			"/>
			<polygon class="st11" points="-360.29,-1023.24 -360.29,-1000.19 -150.15,-880.3 -94.48,-912.05 -94.48,-935.1 -150.15,-903.36 
							"/>
			<path class="st11" d="M-391.4-885.13v23.05c0-6.15,4.03-11.52,12.08-16.12c7.86-4.49,17.29-6.73,28.25-6.73
				c0.38,0,0.76,0,1.14,0.01c11.45,0.16,22.29,3.16,32.51,8.99c10.42,5.94,15.77,12.18,16.05,18.71c0.01,0.22,0.01,0.44,0.01,0.67
				v-23.05c0-0.22,0-0.44-0.01-0.67c-0.28-6.53-5.62-12.77-16.05-18.71c-10.21-5.83-21.06-8.83-32.51-8.99
				c-0.38-0.01-0.76-0.01-1.14-0.01c-10.97,0-20.39,2.24-28.25,6.73C-387.37-896.65-391.4-891.28-391.4-885.13z"/>
			<path class="st11" d="M-259.76-866.09v18.54c-0.3,0.71-0.63,1.41-1,2.12c-3.69,7.08-10.93,13.69-21.73,19.84
				c-12.68,7.24-27.49,11.92-44.44,14.02c-6.18,0.77-12.45,1.15-18.81,1.15c-11.09,0-22.48-1.17-34.14-3.5
				c-18.37-3.67-35.78-10.21-52.25-19.6c-16.47-9.4-27.87-19.31-34.22-29.73c-4.01-6.59-6.01-13.02-6.01-19.31v23.05
				c0,6.29,2,12.72,6.01,19.31c6.35,10.42,17.75,20.33,34.22,29.73c16.47,9.39,33.88,15.93,52.25,19.6
				c11.67,2.33,23.05,3.5,34.14,3.5c6.37,0,12.64-0.38,18.81-1.15c16.95-2.1,31.76-6.78,44.44-14.02
				c10.8-6.15,18.04-12.76,21.73-19.84c2.03-3.88,3.04-7.71,3.04-11.48v-8.01l20.1,11.47l55.66-31.76v-23.05l-55.66,31.76
				L-259.76-866.09z"/>
			<polygon class="st11" points="-561.35,-717.05 -592.02,-828.51 -674.37,-781.52 -719.24,-807.12 -719.24,-784.07 
				-674.37,-758.47 -592.02,-805.46 -561.35,-693.99 -519.03,-669.85 -373.35,-752.96 -373.35,-776.02 -519.03,-692.9 			"/>
		</g>
		<g>
			<path class="st12" d="M-85.97-1147.83c-0.57,6.48-5.68,12.48-15.34,17.98c-9.85,5.62-20.44,8.59-31.81,8.91
				c-0.75,0.02-1.49,0.03-2.23,0.03c-10.41,0-19.41-2.17-27.02-6.51c-8.32-4.76-12.25-10.4-11.78-16.93
				c0.48-6.54,5.63-12.61,15.48-18.23c9.65-5.5,20.2-8.4,31.66-8.66c0.61-0.01,1.22-0.02,1.82-0.02c10.69,0,19.97,2.24,27.85,6.74
				C-89.18-1159.87-85.4-1154.31-85.97-1147.83z"/>
			<path class="st12" d="M293.44-1156.41l-55.94,31.91l-22.15-12.64c3.02,6.71,2.74,13.56-0.85,20.58
				c-3.59,7.03-10.79,13.61-21.58,19.77c-12.69,7.23-27.49,11.91-44.44,14.01c-6.18,0.77-12.45,1.16-18.81,1.16
				c-11.1,0-22.48-1.17-34.15-3.5c-18.36-3.66-35.78-10.2-52.25-19.6c-16.47-9.4-27.87-19.31-34.22-29.73
				c-6.35-10.42-7.62-20.49-3.83-30.21c3.78-9.72,12.02-18.2,24.7-25.44c10.22-5.82,21.48-9.83,33.8-11.99
				c7.03-1.23,14-1.85,20.9-1.85c5.19,0,10.33,0.35,15.45,1.04l-72.7-41.47l55.94-31.92L293.44-1156.41z M162.23-1134.7
				c8.14-4.64,12.07-10.24,11.79-16.77c-0.29-6.53-5.63-12.77-16.05-18.71c-10.22-5.83-21.07-8.82-32.52-8.99
				c-0.38-0.01-0.76-0.01-1.14-0.01c-10.97,0-20.39,2.24-28.25,6.73c-8.33,4.76-12.36,10.34-12.07,16.77
				c0.29,6.43,5.63,12.61,16.05,18.55c10.22,5.82,21.06,8.88,32.52,9.15c0.61,0.01,1.21,0.02,1.81,0.02
				C145.06-1127.96,154.34-1130.2,162.23-1134.7"/>
			<polygon class="st12" points="-58.99,-1137.14 100.32,-1046.25 44.67,-1014.49 -114.65,-1105.38 			"/>
			<path class="st12" d="M-149.7-1069.19c1.73,0,3.48,0.03,5.24,0.1c22.9,0.86,44.78,7.23,65.59,19.11L13.99-997l-55.66,31.76
				l-85.48-48.76c-9.08-5.18-18.6-7.91-28.54-8.18c-0.57-0.02-1.13-0.02-1.7-0.02c-9.26,0-17.64,2.14-25.14,6.42
				c-8.33,4.76-12.26,9.97-11.78,15.63c0.48,5.67,5.26,11.1,14.34,16.28l85.48,48.77l-55.67,31.75l-210.14-119.89l55.66-31.75
				l73.56,41.96c-2.28-6.91-1.42-14.04,2.56-21.39c3.97-7.34,11.45-14.15,22.43-20.41C-189.31-1064.4-170.51-1069.19-149.7-1069.19z
				"/>
			<path class="st12" d="M-181.94-885.21l-55.66,31.76l-22.15-12.64c3.02,6.7,2.7,13.59-1,20.66c-3.69,7.08-10.93,13.69-21.73,19.84
				c-12.68,7.24-27.49,11.92-44.44,14.02c-6.18,0.77-12.45,1.15-18.81,1.15c-11.09,0-22.48-1.17-34.14-3.5
				c-18.37-3.67-35.78-10.21-52.25-19.6c-16.47-9.4-27.87-19.31-34.22-29.73c-6.34-10.42-7.67-20.46-3.98-30.14
				c3.69-9.66,11.88-18.12,24.56-25.35c10.98-6.26,22.63-10.41,34.93-12.47c6.68-1.12,13.28-1.67,19.8-1.67
				c5.48,0,10.91,0.39,16.28,1.18l-22.16-12.64l55.67-31.76L-181.94-885.21z M-313.15-863.5c8.14-4.64,12.07-10.24,11.78-16.77
				c-0.28-6.53-5.62-12.77-16.05-18.71c-10.21-5.83-21.06-8.83-32.51-8.99c-0.38-0.01-0.76-0.01-1.14-0.01
				c-10.97,0-20.39,2.24-28.25,6.73c-8.33,4.76-12.36,10.34-12.07,16.76c0.28,6.43,5.63,12.62,16.05,18.55
				c10.21,5.83,21.05,8.88,32.51,9.16c0.61,0.01,1.21,0.02,1.81,0.02C-330.32-856.75-321.04-859-313.15-863.5"/>
			<polygon class="st12" points="-573.56,-890.23 -531.24,-866.09 -501.71,-754.31 -418.5,-801.78 -373.35,-776.02 -519.03,-692.9 
				-561.35,-717.05 -592.02,-828.51 -674.37,-781.52 -719.24,-807.12 			"/>
		</g>
	</g>
</g>
</svg>
